<svg width="26" height="25" viewBox="0 0 26 25" fill="none" xmlns="http://www.w3.org/2000/svg">
<path d="M11.4106 25C10.9603 25 10.5828 24.8503 10.2781 24.5508C9.97351 24.2513 9.82119 23.8802 9.82119 23.4375V14.0625L0.324503 2.14844C-0.0463575 1.70573 -0.0993378 1.23698 0.165563 0.742187C0.430463 0.247396 0.841059 0 1.39735 0H24.6026C25.1589 0 25.5695 0.247396 25.8344 0.742187C26.0993 1.23698 26.0464 1.70573 25.6755 2.14844L16.1788 14.0625V23.4375C16.1788 23.8802 16.0265 24.2513 15.7219 24.5508C15.4172 24.8503 15.0397 25 14.5894 25H11.4106Z" fill="#858585"/>
</svg>
