<svg width="33" height="31" viewBox="0 0 33 31" fill="none" xmlns="http://www.w3.org/2000/svg">
<path fill-rule="evenodd" clipRule="evenodd" d="M15.5404 0.903694C16.0779 0.365435 16.9221 0.365435 17.4596 0.903694L28.59 12.0535L32.0683 15.5379C32.6247 16.0952 32.6461 17.0215 32.1161 17.6069C31.5863 18.1921 30.7056 18.2146 30.1491 17.6572L29.0217 16.5279V27.5732C29.0217 29.1897 27.776 30.5 26.2391 30.5H19.2826H13.7174H6.76087C5.22408 30.5 3.97826 29.1897 3.97826 27.5732V16.5279L2.85083 17.6572C2.2944 18.2146 1.41374 18.1921 0.883811 17.6069C0.353882 17.0215 0.375361 16.0952 0.931787 15.5379L4.41004 12.0535L15.5404 0.903694ZM6.76087 13.7404V27.5732H12.3261V20.2561C12.3261 17.8314 14.1948 15.8659 16.5 15.8659C18.8053 15.8659 20.6739 17.8314 20.6739 20.2561V27.5732H26.2391V13.7404L16.5 3.98431L6.76087 13.7404ZM17.8913 27.5732V20.2561C17.8913 19.4479 17.2684 18.7927 16.5 18.7927C15.7316 18.7927 15.1087 19.4479 15.1087 20.2561V27.5732H17.8913Z" fill="#2573DA"/>
</svg>
