<svg version="1.1" id="Layer_1" xmlns="http://www.w3.org/2000/svg" xmlns:xlink="http://www.w3.org/1999/xlink" x="0px" y="0px"
	 width="100%" viewBox="0 0 271 101" enable-background="new 0 0 271 101" xml:space="preserve">
<path fill="#FFFFFF" opacity="1.000000" stroke="none" 
	d="
M272.000000,23.999998 
	C272.000000,49.884430 272.000000,75.768860 272.000000,102.000000 
	C265.316620,102.000000 258.627228,102.000000 251.603607,101.679810 
	C253.059799,99.507637 255.396210,97.934784 256.517883,95.740875 
	C258.388428,92.082237 256.589355,88.416824 253.158676,88.057274 
	C248.408218,87.559418 243.629837,87.065842 238.861389,87.045715 
	C213.692978,86.939507 188.467041,86.100021 163.492462,90.108109 
	C155.306076,91.421921 147.300766,93.891533 139.247269,95.966980 
	C138.349030,96.198463 137.678192,97.312325 136.901901,98.016975 
	C138.409546,98.813271 139.165802,98.630989 139.932846,98.535118 
	C149.361481,97.356621 158.770508,95.517303 168.227737,95.219643 
	C176.900101,94.946678 185.628006,96.302765 194.325714,97.011177 
	C202.199677,97.652481 210.090729,98.189156 217.925369,99.164513 
	C222.004700,99.672371 225.978516,101.027557 230.000000,102.000000 
	C153.666641,102.000000 77.333298,102.000000 1.000000,102.000000 
	C1.000000,91.234970 1.000000,80.586143 1.363867,69.481079 
	C5.359317,74.217407 9.260521,78.545509 16.612020,78.109612 
	C23.607931,77.694801 28.685968,74.406403 33.072269,69.426308 
	C38.318188,63.470226 43.288181,57.020752 44.127571,49.076797 
	C44.632927,44.294086 45.688156,42.714840 50.329494,42.747185 
	C51.205524,42.753296 52.672173,39.735096 52.768105,38.049889 
	C52.822113,37.101044 50.421345,34.980793 49.485245,35.169380 
	C41.519096,36.774212 33.600620,38.663910 25.774902,40.851212 
	C24.885319,41.099846 24.363152,43.698208 24.307344,45.230213 
	C24.291689,45.659939 26.536255,46.532574 27.764421,46.572296 
	C30.356850,46.656143 32.962730,46.324093 35.884575,46.142715 
	C33.741917,55.124615 31.861992,63.004669 25.104635,68.296394 
	C22.706558,70.174347 20.373493,73.067108 16.530853,71.153252 
	C12.767179,69.278717 11.047446,66.411972 10.944289,62.120697 
	C10.584860,47.168789 15.438353,33.778542 23.242802,21.403170 
	C26.640530,16.015453 31.050459,11.266081 35.020996,6.200886 
	C41.818905,10.724462 39.128098,16.902910 40.419758,21.968830 
	C45.280224,22.131075 47.549793,18.734228 48.934513,15.425211 
	C49.810799,13.331178 49.496063,9.755124 48.186756,7.956822 
	C46.137894,5.142750 42.794830,3.270952 40.000000,1.000000 
	C73.354225,1.000000 106.708458,1.000000 140.373337,1.349748 
	C137.870285,2.436074 135.009491,3.029617 132.252106,3.937270 
	C125.255104,6.240477 124.076897,11.218781 128.890579,16.634432 
	C129.798965,17.656427 130.084320,19.756021 129.810715,21.197748 
	C129.207352,24.377151 127.512611,27.412333 127.272362,30.582829 
	C126.922775,35.196419 123.981926,37.375050 120.391708,37.621372 
	C114.684479,38.012936 108.891357,37.293118 103.149719,36.848011 
	C102.501984,36.797794 101.639435,35.572933 101.413643,34.746094 
	C100.657639,31.977674 99.587677,30.067587 96.175934,29.911570 
	C92.477722,29.742455 91.268761,32.176899 90.091591,34.717133 
	C86.313370,42.870258 82.764503,51.131004 78.907745,59.245949 
	C75.898354,65.577957 71.234756,70.289787 64.146454,71.846764 
	C61.352871,72.460381 58.299049,72.480888 57.095226,68.970688 
	C55.744087,65.030945 59.322918,58.952484 63.102928,56.830173 
	C67.920380,54.125381 72.779594,51.175686 76.791183,47.440536 
	C81.211166,43.325134 80.930534,35.402100 77.185677,31.739906 
	C73.943283,28.569088 66.010368,29.484388 61.926682,33.578571 
	C52.302391,43.227612 49.314503,55.275948 50.171783,68.354568 
	C50.456963,72.705238 52.230782,77.545662 57.754528,77.837196 
	C61.567169,78.038429 65.589142,77.305817 69.265259,76.172302 
	C72.653305,75.127617 75.704742,72.991287 78.879074,71.348938 
	C83.713570,79.590851 87.363876,80.205894 95.093399,74.479179 
	C101.222267,69.938362 104.399117,63.341553 105.808113,56.375656 
	C107.597069,47.531342 111.721977,42.842533 121.024155,43.617893 
	C121.264862,43.637959 121.505463,43.659237 122.337738,43.730877 
	C121.907623,46.541706 121.645012,49.296394 121.044434,51.975315 
	C119.617973,58.338043 118.305962,64.748123 116.417168,70.978218 
	C115.062775,75.445595 117.910622,76.762306 120.829407,77.788200 
	C123.731018,78.808037 125.814445,77.777077 126.438942,74.215790 
	C127.789940,66.511536 129.364563,58.841957 131.068130,51.207378 
	C131.475510,49.381714 132.746887,47.748844 133.620895,46.027302 
	C135.073944,47.323109 137.043686,48.346962 137.892960,49.960548 
	C142.169037,58.084961 146.028259,66.429642 150.348618,74.529091 
	C151.171234,76.071297 154.069153,78.157028 154.874100,77.749458 
	C157.314529,76.513763 159.569595,74.429260 161.114166,72.145958 
	C161.727112,71.239868 160.602509,68.745766 159.722366,67.309708 
	C154.314819,58.486893 148.750778,49.760006 143.115463,40.805161 
	C145.345749,39.475361 146.245316,38.680576 147.290588,38.357918 
	C153.816147,36.343613 158.777451,32.120480 163.264465,27.222944 
	C170.818207,18.978077 168.214447,4.339004 156.305283,2.912335 
	C153.829361,2.615731 151.433014,1.654779 149.000000,0.999999 
	C190.000031,1.000000 231.000076,1.000000 272.000000,1.000000 
	C272.000000,7.098464 272.000000,13.079857 271.563477,19.530653 
	C265.847504,20.412874 260.568054,20.825689 254.922455,21.267138 
	C258.629456,8.798309 255.898285,5.771058 249.147385,7.615467 
	C248.418304,11.383368 248.222992,15.453406 246.728455,18.971504 
	C245.828598,21.089691 243.130310,23.203756 240.842773,23.803257 
	C236.926788,24.829536 232.700958,24.692148 228.601730,24.995859 
	C223.822449,25.349955 222.642776,26.887363 223.548706,30.694231 
	C218.387772,34.865971 213.504410,38.813354 207.991714,43.269444 
	C207.991714,40.365032 208.571350,38.365887 207.849701,37.121235 
	C206.877777,35.444939 205.048325,34.025391 203.260391,33.225422 
	C202.791580,33.015659 200.774506,35.340561 200.087936,36.794052 
	C199.347061,38.362564 198.996140,40.285263 199.053741,42.034401 
	C199.571960,57.770405 187.987244,64.759842 177.144409,72.138290 
	C176.298386,72.714005 172.704239,71.298653 172.352356,70.186806 
	C171.059921,66.102982 172.253052,58.631474 177.996063,57.079781 
	C183.651199,55.551826 187.914368,52.064518 191.684097,47.821819 
	C194.816513,44.296383 195.004013,35.937965 192.081528,32.609005 
	C189.133209,29.250597 183.951218,28.890692 179.005569,32.069263 
	C177.112305,33.286068 175.490143,35.069366 174.070236,36.853760 
	C166.514587,46.348820 164.142288,57.370613 165.043427,69.217735 
	C165.356384,73.332283 166.812347,77.353592 171.504807,77.852188 
	C177.212021,78.458580 183.129929,78.803787 187.703690,73.910568 
	C188.609436,72.941551 190.151901,72.567680 191.449295,71.894142 
	C192.205460,74.115295 192.827103,75.941307 193.440338,77.742653 
	C198.408524,78.671936 200.523361,77.346199 201.283905,71.823601 
	C202.085266,66.004547 204.511124,60.215073 207.218231,54.919273 
	C209.094391,51.249050 212.649109,48.436882 215.453812,45.241325 
	C215.961655,45.600750 216.469482,45.960171 216.977310,46.319592 
	C216.737167,47.355446 216.468628,48.385662 216.261459,49.428066 
	C214.833801,56.610615 213.073639,63.750481 212.124649,70.996307 
	C211.518173,75.626884 214.080170,77.685219 218.874832,78.016632 
	C225.163177,78.451302 229.353592,75.261398 232.626190,69.743309 
	C234.181580,71.815315 235.470749,73.493484 236.717804,75.202377 
	C239.090134,78.453239 242.379562,79.251831 245.270966,76.759155 
	C249.624298,73.006119 252.989822,68.352333 253.729904,61.743954 
	C250.184845,64.911720 247.106613,67.662331 243.231720,71.124832 
	C243.231720,66.494057 242.601654,63.347252 243.345184,60.567909 
	C245.994461,50.664780 249.084641,40.878643 252.068680,31.066696 
	C252.826096,28.576195 254.068970,27.089188 257.245209,26.827852 
	C262.207458,26.419575 267.085999,24.994364 272.000000,23.999998 
z"/>
<path fill="#7247C8" opacity="1.000000" stroke="none" 
	d="
M148.555832,0.999999 
	C151.433014,1.654779 153.829361,2.615731 156.305283,2.912335 
	C168.214447,4.339004 170.818207,18.978077 163.264465,27.222944 
	C158.777451,32.120480 153.816147,36.343613 147.290588,38.357918 
	C146.245316,38.680576 145.345749,39.475361 143.115463,40.805161 
	C148.750778,49.760006 154.314819,58.486893 159.722366,67.309708 
	C160.602509,68.745766 161.727112,71.239868 161.114166,72.145958 
	C159.569595,74.429260 157.314529,76.513763 154.874100,77.749458 
	C154.069153,78.157028 151.171234,76.071297 150.348618,74.529091 
	C146.028259,66.429642 142.169037,58.084961 137.892960,49.960548 
	C137.043686,48.346962 135.073944,47.323109 133.620895,46.027302 
	C132.746887,47.748844 131.475510,49.381714 131.068130,51.207378 
	C129.364563,58.841957 127.789940,66.511536 126.438942,74.215790 
	C125.814445,77.777077 123.731018,78.808037 120.829407,77.788200 
	C117.910622,76.762306 115.062775,75.445595 116.417168,70.978218 
	C118.305962,64.748123 119.617973,58.338043 121.044434,51.975315 
	C121.645012,49.296394 121.907623,46.541706 122.337738,43.730877 
	C121.505463,43.659237 121.264862,43.637959 121.024155,43.617893 
	C111.721977,42.842533 107.597069,47.531342 105.808113,56.375656 
	C104.399117,63.341553 101.222267,69.938362 95.093399,74.479179 
	C87.363876,80.205894 83.713570,79.590851 78.879074,71.348938 
	C75.704742,72.991287 72.653305,75.127617 69.265259,76.172302 
	C65.589142,77.305817 61.567169,78.038429 57.754528,77.837196 
	C52.230782,77.545662 50.456963,72.705238 50.171783,68.354568 
	C49.314503,55.275948 52.302391,43.227612 61.926682,33.578571 
	C66.010368,29.484388 73.943283,28.569088 77.185677,31.739906 
	C80.930534,35.402100 81.211166,43.325134 76.791183,47.440536 
	C72.779594,51.175686 67.920380,54.125381 63.102928,56.830173 
	C59.322918,58.952484 55.744087,65.030945 57.095226,68.970688 
	C58.299049,72.480888 61.352871,72.460381 64.146454,71.846764 
	C71.234756,70.289787 75.898354,65.577957 78.907745,59.245949 
	C82.764503,51.131004 86.313370,42.870258 90.091591,34.717133 
	C91.268761,32.176899 92.477722,29.742455 96.175934,29.911570 
	C99.587677,30.067587 100.657639,31.977674 101.413643,34.746094 
	C101.639435,35.572933 102.501984,36.797794 103.149719,36.848011 
	C108.891357,37.293118 114.684479,38.012936 120.391708,37.621372 
	C123.981926,37.375050 126.922775,35.196419 127.272362,30.582829 
	C127.512611,27.412333 129.207352,24.377151 129.810715,21.197748 
	C130.084320,19.756021 129.798965,17.656427 128.890579,16.634432 
	C124.076897,11.218781 125.255104,6.240477 132.252106,3.937270 
	C135.009491,3.029617 137.870285,2.436074 140.841995,1.349748 
	C143.370560,1.000000 145.741104,1.000000 148.555832,0.999999 
M141.479385,13.118646 
	C141.841217,15.389690 142.902359,17.827368 142.409729,19.894819 
	C141.556244,23.476778 139.636353,26.791929 138.373917,30.294748 
	C137.781982,31.937195 137.679474,33.756039 137.148849,36.601048 
	C145.856323,31.859447 152.518311,27.298985 156.127213,19.506592 
	C158.238480,14.947903 157.124786,10.511730 153.534256,8.234526 
	C150.296036,6.180763 143.109299,7.004904 140.767166,9.914962 
	C140.272552,10.529526 140.702408,11.888148 141.479385,13.118646 
M92.070427,48.819065 
	C90.781364,54.012417 89.249855,59.164326 88.350861,64.424347 
	C88.080856,66.004158 89.572998,67.885132 90.257874,69.628128 
	C91.773178,68.981544 94.029434,68.754608 94.674713,67.615280 
	C97.377708,62.842754 99.732307,57.856201 101.953362,52.832584 
	C103.807076,48.639824 102.967331,45.658245 97.691948,45.207188 
	C96.646240,45.117775 95.651016,44.437962 94.570366,44.005543 
	C93.772774,45.519329 93.090240,46.814754 92.070427,48.819065 
M62.083588,48.777634 
	C62.194168,49.811848 62.304745,50.846062 62.415321,51.880276 
	C62.908955,52.161652 63.402584,52.443024 63.896217,52.724400 
	C66.589500,49.515198 69.529686,46.469929 71.832588,43.001526 
	C72.567772,41.894276 71.612701,39.664753 71.431015,37.948730 
	C69.829170,38.600700 67.638176,38.811039 66.748985,39.997227 
	C64.937569,42.413677 63.828053,45.356297 62.083588,48.777634 
z"/>
<path fill="#7247C8" opacity="1.000000" stroke="none" 
	d="
M272.000000,23.600002 
	C267.085999,24.994364 262.207458,26.419575 257.245209,26.827852 
	C254.068970,27.089188 252.826096,28.576195 252.068680,31.066696 
	C249.084641,40.878643 245.994461,50.664780 243.345184,60.567909 
	C242.601654,63.347252 243.231720,66.494057 243.231720,71.124832 
	C247.106613,67.662331 250.184845,64.911720 253.729904,61.743954 
	C252.989822,68.352333 249.624298,73.006119 245.270966,76.759155 
	C242.379562,79.251831 239.090134,78.453239 236.717804,75.202377 
	C235.470749,73.493484 234.181580,71.815315 232.626190,69.743309 
	C229.353592,75.261398 225.163177,78.451302 218.874832,78.016632 
	C214.080170,77.685219 211.518173,75.626884 212.124649,70.996307 
	C213.073639,63.750481 214.833801,56.610615 216.261459,49.428066 
	C216.468628,48.385662 216.737167,47.355446 216.977310,46.319592 
	C216.469482,45.960171 215.961655,45.600750 215.453812,45.241325 
	C212.649109,48.436882 209.094391,51.249050 207.218231,54.919273 
	C204.511124,60.215073 202.085266,66.004547 201.283905,71.823601 
	C200.523361,77.346199 198.408524,78.671936 193.440338,77.742653 
	C192.827103,75.941307 192.205460,74.115295 191.449295,71.894142 
	C190.151901,72.567680 188.609436,72.941551 187.703690,73.910568 
	C183.129929,78.803787 177.212021,78.458580 171.504807,77.852188 
	C166.812347,77.353592 165.356384,73.332283 165.043427,69.217735 
	C164.142288,57.370613 166.514587,46.348820 174.070236,36.853760 
	C175.490143,35.069366 177.112305,33.286068 179.005569,32.069263 
	C183.951218,28.890692 189.133209,29.250597 192.081528,32.609005 
	C195.004013,35.937965 194.816513,44.296383 191.684097,47.821819 
	C187.914368,52.064518 183.651199,55.551826 177.996063,57.079781 
	C172.253052,58.631474 171.059921,66.102982 172.352356,70.186806 
	C172.704239,71.298653 176.298386,72.714005 177.144409,72.138290 
	C187.987244,64.759842 199.571960,57.770405 199.053741,42.034401 
	C198.996140,40.285263 199.347061,38.362564 200.087936,36.794052 
	C200.774506,35.340561 202.791580,33.015659 203.260391,33.225422 
	C205.048325,34.025391 206.877777,35.444939 207.849701,37.121235 
	C208.571350,38.365887 207.991714,40.365032 207.991714,43.269444 
	C213.504410,38.813354 218.387772,34.865971 223.548706,30.694231 
	C222.642776,26.887363 223.822449,25.349955 228.601730,24.995859 
	C232.700958,24.692148 236.926788,24.829536 240.842773,23.803257 
	C243.130310,23.203756 245.828598,21.089691 246.728455,18.971504 
	C248.222992,15.453406 248.418304,11.383368 249.147385,7.615467 
	C255.898285,5.771058 258.629456,8.798309 254.922455,21.267138 
	C260.568054,20.825689 265.847504,20.412874 271.563477,20.000029 
	C272.000000,21.066669 272.000000,22.133339 272.000000,23.600002 
M227.004822,48.438580 
	C225.302979,55.234928 219.709610,61.072937 221.438248,69.487267 
	C236.565506,59.792728 238.312836,43.945854 243.552765,28.734825 
	C237.326065,29.602262 231.956497,30.350292 225.800461,31.207886 
	C230.686966,33.520103 230.565186,37.095276 229.600204,40.775440 
	C228.985138,43.121090 227.949844,45.356548 227.004822,48.438580 
M186.082275,44.612041 
	C186.256531,42.782234 186.430771,40.952423 186.605011,39.122612 
	C185.313324,39.014244 183.374557,38.309937 182.835785,38.894962 
	C179.528122,42.486572 176.831268,46.487423 177.222809,52.143120 
	C181.819702,51.577843 184.173187,48.848965 186.082275,44.612041 
z"/>
<path fill="#7247C8" opacity="1.000000" stroke="none" 
	d="
M39.555836,1.000000 
	C42.794830,3.270952 46.137894,5.142750 48.186756,7.956822 
	C49.496063,9.755124 49.810799,13.331178 48.934513,15.425211 
	C47.549793,18.734228 45.280224,22.131075 40.419758,21.968830 
	C39.128098,16.902910 41.818905,10.724462 35.020996,6.200886 
	C31.050459,11.266081 26.640530,16.015453 23.242802,21.403170 
	C15.438353,33.778542 10.584860,47.168789 10.944289,62.120697 
	C11.047446,66.411972 12.767179,69.278717 16.530853,71.153252 
	C20.373493,73.067108 22.706558,70.174347 25.104635,68.296394 
	C31.861992,63.004669 33.741917,55.124615 35.884575,46.142715 
	C32.962730,46.324093 30.356850,46.656143 27.764421,46.572296 
	C26.536255,46.532574 24.291689,45.659939 24.307344,45.230213 
	C24.363152,43.698208 24.885319,41.099846 25.774902,40.851212 
	C33.600620,38.663910 41.519096,36.774212 49.485245,35.169380 
	C50.421345,34.980793 52.822113,37.101044 52.768105,38.049889 
	C52.672173,39.735096 51.205524,42.753296 50.329494,42.747185 
	C45.688156,42.714840 44.632927,44.294086 44.127571,49.076797 
	C43.288181,57.020752 38.318188,63.470226 33.072269,69.426308 
	C28.685968,74.406403 23.607931,77.694801 16.612020,78.109612 
	C9.260521,78.545509 5.359317,74.217407 1.363867,69.012421 
	C1.000000,63.311958 1.000000,57.623920 1.339159,51.317055 
	C3.454280,44.286037 4.684564,37.657776 7.120097,31.506744 
	C12.149671,18.804358 18.013607,6.513848 32.000000,1.000000 
	C34.370556,1.000000 36.741116,1.000000 39.555836,1.000000 
z"/>
<path fill="#E2974B" opacity="1.000000" stroke="none" 
	d="
M230.468536,102.000000 
	C225.978516,101.027557 222.004700,99.672371 217.925369,99.164513 
	C210.090729,98.189156 202.199677,97.652481 194.325714,97.011177 
	C185.628006,96.302765 176.900101,94.946678 168.227737,95.219643 
	C158.770508,95.517303 149.361481,97.356621 139.932846,98.535118 
	C139.165802,98.630989 138.409546,98.813271 136.901901,98.016975 
	C137.678192,97.312325 138.349030,96.198463 139.247269,95.966980 
	C147.300766,93.891533 155.306076,91.421921 163.492462,90.108109 
	C188.467041,86.100021 213.692978,86.939507 238.861389,87.045715 
	C243.629837,87.065842 248.408218,87.559418 253.158676,88.057274 
	C256.589355,88.416824 258.388428,92.082237 256.517883,95.740875 
	C255.396210,97.934784 253.059799,99.507637 251.134674,101.679810 
	C244.312363,102.000000 237.624710,102.000000 230.468536,102.000000 
z"/>
<path fill="#FFFFFF" opacity="1.000000" stroke="none" 
	d="
M31.531342,1.000000 
	C18.013607,6.513848 12.149671,18.804358 7.120097,31.506744 
	C4.684564,37.657776 3.454280,44.286037 1.339159,50.849113 
	C1.000000,34.423878 1.000000,17.847754 1.000000,1.000000 
	C11.019261,1.000000 21.040974,1.000000 31.531342,1.000000 
z"/>
<path fill="#FFFFFF" opacity="1.000000" stroke="none" 
	d="
M141.092834,13.011291 
	C140.702408,11.888148 140.272552,10.529526 140.767166,9.914962 
	C143.109299,7.004904 150.296036,6.180763 153.534256,8.234526 
	C157.124786,10.511730 158.238480,14.947903 156.127213,19.506592 
	C152.518311,27.298985 145.856323,31.859447 137.148849,36.601048 
	C137.679474,33.756039 137.781982,31.937195 138.373917,30.294748 
	C139.636353,26.791929 141.556244,23.476778 142.409729,19.894819 
	C142.902359,17.827368 141.841217,15.389690 141.092834,13.011291 
z"/>
<path fill="#FFFFFF" opacity="1.000000" stroke="none" 
	d="
M92.239059,48.464622 
	C93.090240,46.814754 93.772774,45.519329 94.570366,44.005543 
	C95.651016,44.437962 96.646240,45.117775 97.691948,45.207188 
	C102.967331,45.658245 103.807076,48.639824 101.953362,52.832584 
	C99.732307,57.856201 97.377708,62.842754 94.674713,67.615280 
	C94.029434,68.754608 91.773178,68.981544 90.257874,69.628128 
	C89.572998,67.885132 88.080856,66.004158 88.350861,64.424347 
	C89.249855,59.164326 90.781364,54.012417 92.239059,48.464622 
z"/>
<path fill="#FFFFFF" opacity="1.000000" stroke="none" 
	d="
M62.256466,48.429882 
	C63.828053,45.356297 64.937569,42.413677 66.748985,39.997227 
	C67.638176,38.811039 69.829170,38.600700 71.431015,37.948730 
	C71.612701,39.664753 72.567772,41.894276 71.832588,43.001526 
	C69.529686,46.469929 66.589500,49.515198 63.896217,52.724400 
	C63.402584,52.443024 62.908955,52.161652 62.415321,51.880276 
	C62.304745,50.846062 62.194168,49.811848 62.256466,48.429882 
z"/>
<path fill="#FFFFFF" opacity="1.000000" stroke="none" 
	d="
M227.053894,48.039997 
	C227.949844,45.356548 228.985138,43.121090 229.600204,40.775440 
	C230.565186,37.095276 230.686966,33.520103 225.800461,31.207886 
	C231.956497,30.350292 237.326065,29.602262 243.552765,28.734825 
	C238.312836,43.945854 236.565506,59.792728 221.438248,69.487267 
	C219.709610,61.072937 225.302979,55.234928 227.053894,48.039997 
z"/>
<path fill="#FFFFFF" opacity="1.000000" stroke="none" 
	d="
M186.004517,44.975899 
	C184.173187,48.848965 181.819702,51.577843 177.222809,52.143120 
	C176.831268,46.487423 179.528122,42.486572 182.835785,38.894962 
	C183.374557,38.309937 185.313324,39.014244 186.605011,39.122612 
	C186.430771,40.952423 186.256531,42.782234 186.004517,44.975899 
z"/>
</svg>