<?xml version="1.0" standalone="no"?>
<!DOCTYPE svg PUBLIC "-//W3C//DTD SVG 20010904//EN"
 "http://www.w3.org/TR/2001/REC-SVG-20010904/DTD/svg10.dtd">
<svg version="1.0" xmlns="http://www.w3.org/2000/svg"
 width="512.000000pt" height="512.000000pt" viewBox="0 0 512.000000 512.000000"
 preserveAspectRatio="xMidYMid meet">

<g transform="translate(0.000000,512.000000) scale(0.100000,-0.100000)"
fill="#000000" stroke="none">
<path d="M1970 5115 c-8 -2 -49 -9 -90 -15 -306 -50 -629 -258 -804 -519 -92
-138 -165 -313 -197 -476 -20 -102 -18 -359 4 -462 54 -254 169 -466 348 -640
82 -81 157 -139 237 -185 l54 -31 -102 -38 c-644 -243 -1083 -830 -1140 -1525
-13 -165 -13 -668 0 -716 6 -20 22 -46 37 -58 26 -20 31 -20 1338 -20 l1313 0
34 -42 c168 -205 385 -330 650 -374 279 -46 585 34 808 213 264 212 415 570
380 903 -46 449 -334 787 -775 911 -68 19 -106 23 -258 24 l-179 1 -53 73
c-199 274 -483 489 -807 611 l-99 37 66 39 c100 58 236 176 313 270 407 500
370 1212 -88 1664 -235 233 -553 363 -880 359 -52 -1 -102 -3 -110 -4z m295
-240 c346 -61 633 -288 766 -607 56 -137 73 -229 73 -393 -1 -129 -5 -164 -28
-250 -94 -358 -374 -638 -731 -731 -85 -23 -122 -27 -245 -27 -191 -1 -309 27
-470 108 -136 69 -287 201 -370 324 -62 93 -126 235 -152 337 -32 127 -32 351
0 477 93 370 377 658 740 747 42 10 91 21 107 23 72 10 229 6 310 -8z m176
-2254 c364 -72 694 -269 915 -545 l64 -80 -68 -36 c-241 -126 -426 -339 -511
-589 -72 -210 -73 -451 -2 -666 13 -40 15 -58 7 -61 -6 -2 -537 -3 -1181 -2
l-1170 3 -3 235 c-4 347 17 520 88 726 196 560 701 962 1300 1034 129 15 440
5 561 -19z m1574 -797 c290 -78 514 -310 590 -609 24 -94 24 -275 1 -370 -25
-100 -105 -259 -170 -336 -154 -185 -378 -289 -621 -289 -138 0 -235 23 -360
84 -163 80 -290 207 -371 371 -58 119 -75 187 -81 326 -8 188 30 335 127 484
114 173 304 304 500 344 30 6 64 13 75 15 41 10 252 -4 310 -20z"/>
<path d="M3763 1554 c-54 -27 -63 -62 -63 -242 l0 -161 -181 -3 -181 -3 -29
-33 c-44 -50 -38 -122 15 -164 18 -15 45 -18 199 -18 l177 0 0 -166 c0 -188 9
-222 65 -248 41 -20 59 -20 100 0 56 26 65 60 65 248 l0 166 176 0 176 0 34
34 c46 46 48 101 5 148 l-29 33 -181 3 -180 3 -3 174 -3 175 -30 30 c-38 38
-88 47 -132 24z"/>
</g>
</svg>
