<?xml version="1.0" standalone="no"?>
<!DOCTYPE svg PUBLIC "-//W3C//DTD SVG 20010904//EN"
 "http://www.w3.org/TR/2001/REC-SVG-20010904/DTD/svg10.dtd">
<svg version="1.0" xmlns="http://www.w3.org/2000/svg"
 width="512.000000pt" height="512.000000pt" viewBox="0 0 512.000000 512.000000"
 preserveAspectRatio="xMidYMid meet">

<g transform="translate(0.000000,512.000000) scale(0.100000,-0.100000)"
fill="#000000" stroke="none">
<path d="M560 4779 c-55 -25 -105 -71 -133 -124 l-22 -40 -3 -1884 c-3 -2077
-6 -1945 59 -2025 18 -21 55 -49 83 -62 l51 -24 1448 0 1448 0 92 -93 c145
-147 270 -201 467 -201 122 0 200 18 305 70 244 119 389 383 357 649 -20 159
-70 270 -174 381 -70 74 -156 133 -239 164 l-59 22 0 1491 c0 1101 -3 1500
-12 1528 -15 51 -69 114 -122 142 l-41 22 -1730 2 c-1723 3 -1730 3 -1775 -18z
m3489 -165 l31 -26 0 -1473 0 -1472 -78 -7 c-161 -14 -327 -97 -437 -219 -63
-69 -126 -189 -150 -282 -19 -74 -19 -233 -1 -303 l13 -52 -1407 0 -1407 0
-24 26 -24 26 -3 1864 c-2 2031 -6 1911 51 1934 12 5 757 9 1714 9 l1691 1 31
-26z m163 -3164 c77 -24 169 -81 220 -138 97 -108 144 -286 114 -430 -66 -317
-415 -492 -703 -351 -256 124 -356 419 -229 679 56 117 184 219 312 249 73 17
217 13 286 -9z"/>
<path d="M2193 4331 c-79 -49 -32 -166 62 -152 36 5 65 41 65 82 0 29 -7 43
-31 63 -36 31 -54 32 -96 7z"/>
<path d="M976 4319 c-35 -28 -36 -80 -1 -115 l25 -25 421 3 421 3 19 24 c26
32 24 77 -6 106 l-24 25 -414 0 c-404 0 -415 -1 -441 -21z"/>
<path d="M1026 3865 c-57 -20 -108 -66 -138 -125 l-28 -52 0 -977 0 -976 24
-50 c25 -55 79 -108 135 -134 33 -14 155 -16 1306 -16 l1270 0 51 27 c29 15
66 44 83 65 64 78 62 31 59 1099 l-3 969 -22 40 c-28 53 -78 99 -133 124 -44
20 -59 21 -1305 20 -1046 0 -1267 -2 -1299 -14z m2555 -155 c49 -27 49 -20 49
-747 l0 -678 -268 268 c-196 195 -274 267 -291 267 -13 0 -164 -61 -337 -135
-173 -74 -318 -135 -321 -135 -4 0 -111 104 -238 230 -191 190 -237 230 -260
230 -15 0 -217 -81 -449 -181 -231 -100 -427 -183 -433 -186 -10 -4 -13 101
-13 507 l0 512 29 29 29 29 1242 0 c832 0 1248 -3 1261 -10z m-924 -1620 c58
0 101 50 88 102 -4 13 -53 71 -110 128 l-103 103 251 109 c138 59 255 108 259
108 5 0 139 -129 299 -287 l289 -286 0 -153 0 -154 -29 -32 -29 -33 -1219 -3
c-670 -1 -1232 0 -1249 3 -18 3 -44 17 -58 32 l-26 26 0 356 1 356 432 186
432 186 375 -374 c263 -261 382 -373 397 -373z"/>
<path d="M2631 3539 c-243 -46 -288 -376 -66 -484 106 -52 221 -30 301 57 166
181 6 472 -235 427z m122 -190 c25 -31 31 -65 17 -100 -17 -40 -50 -61 -97
-61 -49 0 -93 46 -93 96 0 40 39 93 73 98 34 6 80 -10 100 -33z"/>
<path d="M984 1228 c-47 -22 -57 -91 -19 -132 52 -56 145 -15 145 64 0 29 -53
80 -82 79 -13 0 -33 -5 -44 -11z"/>
<path d="M1315 1217 c-57 -48 -20 -147 55 -147 74 0 109 92 55 145 -31 32 -75
32 -110 2z"/>
<path d="M1673 1228 c-12 -6 -27 -23 -33 -39 -36 -87 68 -159 134 -93 69 69
-12 175 -101 132z"/>
<path d="M4024 1355 c-16 -7 -91 -75 -166 -152 -120 -121 -138 -144 -138 -172
0 -42 38 -81 81 -81 25 0 45 14 105 72 l74 71 0 -222 c0 -126 4 -230 10 -241
13 -24 65 -41 93 -31 49 19 52 30 57 265 l5 221 71 -67 c55 -53 77 -68 101
-68 40 0 73 36 73 81 0 31 -14 48 -147 180 -82 81 -157 149 -169 151 -12 3
-34 0 -50 -7z"/>
</g>
</svg>
