<?xml version="1.0" standalone="no"?>
<!DOCTYPE svg PUBLIC "-//W3C//DTD SVG 20010904//EN"
 "http://www.w3.org/TR/2001/REC-SVG-20010904/DTD/svg10.dtd">
<svg version="1.0" xmlns="http://www.w3.org/2000/svg"
 width="512.000000pt" height="512.000000pt" viewBox="0 0 512.000000 512.000000"
 preserveAspectRatio="xMidYMid meet">

<g transform="translate(0.000000,512.000000) scale(0.100000,-0.100000)"
fill="#000000" stroke="none">
<path d="M596 5104 c-179 -39 -331 -153 -425 -318 -102 -180 -102 -432 0 -612
142 -250 419 -377 694 -319 232 49 441 253 487 476 l12 59 1801 0 c1976 0
1828 -5 1855 60 10 24 10 36 0 60 -27 65 121 60 -1855 60 l-1801 0 -12 59
c-25 119 -113 259 -217 344 -152 125 -347 172 -539 131z m265 -189 c75 -21
130 -54 191 -116 178 -177 178 -461 0 -638 -93 -94 -192 -134 -327 -133 -250
2 -447 200 -447 452 0 306 286 519 583 435z"/>
<path d="M2478 3230 c-120 -21 -241 -78 -328 -153 -101 -86 -188 -232 -214
-359 l-13 -63 -890 -5 c-704 -4 -893 -8 -905 -18 -30 -24 -42 -69 -28 -102 26
-64 -31 -60 942 -60 l888 0 6 -27 c36 -165 154 -331 300 -423 136 -86 318
-119 474 -86 237 50 444 246 503 476 l14 55 875 5 c691 4 878 8 890 18 30 24
42 69 28 102 -26 64 29 60 -922 60 l-868 0 0 24 c0 41 -40 158 -78 226 -46 84
-168 206 -252 252 -124 69 -298 101 -422 78z m233 -196 c297 -87 431 -432 274
-700 -14 -24 -49 -66 -78 -95 -182 -179 -479 -176 -662 6 -179 180 -185 477
-12 657 97 100 204 147 338 147 50 1 108 -6 140 -15z"/>
<path d="M4251 1264 c-229 -49 -437 -255 -483 -475 l-12 -59 -1801 0 c-1976 0
-1828 5 -1855 -60 -10 -24 -10 -36 0 -60 27 -65 -121 -60 1855 -60 l1801 0 12
-59 c25 -119 113 -259 217 -344 310 -254 764 -166 964 187 102 180 102 432 0
612 -142 250 -423 378 -698 318z m286 -195 c183 -62 305 -234 305 -429 0 -345
-361 -559 -672 -400 -67 34 -156 129 -191 204 -171 365 178 755 558 625z"/>
</g>
</svg>
