<?xml version="1.0" standalone="no"?>
<!DOCTYPE svg PUBLIC "-//W3C//DTD SVG 20010904//EN"
 "http://www.w3.org/TR/2001/REC-SVG-20010904/DTD/svg10.dtd">
<svg version="1.0" xmlns="http://www.w3.org/2000/svg"
 width="512.000000pt" height="512.000000pt" viewBox="0 0 512.000000 512.000000"
 preserveAspectRatio="xMidYMid meet">

<g transform="translate(0.000000,512.000000) scale(0.100000,-0.100000)"
fill="#000000" stroke="none">
<path d="M2323 5110 c-593 -58 -1155 -323 -1574 -743 -401 -402 -647 -905
-731 -1492 -20 -140 -17 -504 6 -660 39 -278 121 -541 247 -794 331 -667 931
-1152 1657 -1340 509 -132 1067 -98 1560 94 349 137 639 330 907 606 205 210
340 404 465 663 119 246 190 474 232 741 31 200 31 550 0 750 -43 273 -114
500 -237 750 -132 270 -269 461 -489 680 -405 405 -875 642 -1446 730 -124 19
-466 27 -597 15z m577 -185 c134 -20 324 -67 454 -111 231 -80 540 -256 735
-418 251 -210 479 -503 622 -801 164 -343 233 -649 233 -1035 0 -243 -15 -369
-69 -585 -213 -844 -886 -1517 -1730 -1730 -216 -54 -342 -69 -585 -69 -243 0
-369 15 -585 69 -481 121 -930 404 -1251 786 -105 126 -230 321 -309 482 -112
231 -181 455 -222 717 -24 158 -24 499 0 660 66 436 242 840 513 1175 84 104
268 287 370 367 357 282 798 460 1259 507 124 13 438 5 565 -14z"/>
<path d="M2420 4603 c-299 -28 -514 -86 -755 -203 -613 -296 -1040 -887 -1136
-1570 -19 -139 -17 -430 5 -565 83 -516 324 -947 711 -1273 372 -312 824 -476
1315 -476 410 0 788 112 1120 331 837 553 1153 1606 758 2524 -247 573 -762
1017 -1359 1169 -220 56 -476 81 -659 63z m300 -174 c762 -69 1396 -576 1628
-1300 173 -540 88 -1137 -229 -1609 -148 -220 -300 -372 -522 -521 -477 -320
-1080 -402 -1627 -220 -479 160 -873 503 -1094 955 -294 598 -247 1313 123
1867 381 569 1047 890 1721 828z"/>
<path d="M2490 4089 c-178 -30 -321 -174 -350 -353 -15 -96 29 -531 91 -895
74 -434 146 -667 234 -751 33 -32 41 -35 95 -35 52 0 63 4 90 30 66 62 111
168 165 389 63 257 130 686 155 986 6 74 12 154 15 176 11 108 -41 251 -123
333 -97 96 -238 142 -372 120z m175 -189 c52 -22 103 -73 129 -130 16 -36 20
-63 18 -134 -4 -248 -101 -896 -177 -1186 -28 -106 -63 -200 -75 -200 -23 0
-91 237 -134 470 -59 310 -115 747 -119 915 -2 80 1 96 26 147 61 125 201 175
332 118z"/>
<path d="M2470 1866 c-215 -47 -364 -260 -331 -473 29 -184 158 -321 341 -359
279 -58 545 192 501 473 -29 184 -167 329 -346 362 -71 13 -94 13 -165 -3z
m157 -171 c74 -22 126 -65 158 -129 85 -174 -34 -368 -226 -367 -295 1 -348
420 -62 497 63 17 70 17 130 -1z"/>
</g>
</svg>
